<svg preserveAspectRatio="none" width="100%" height="100%" overflow="visible" style="display: block;" viewBox="0 0 19 19" fill="none" xmlns="http://www.w3.org/2000/svg">
<path id="Vector" d="M18.3297 7.16742L11.1623 0L10.6764 0.485833C9.449 1.71325 9.05483 3.45767 9.49208 5.01692L7.3645 7.1445C5.09208 6.15175 2.34667 6.58442 0.485833 8.44525L0 8.93108L4.213 13.1441L0.810333 16.5467L1.78292 17.5193L5.18558 14.1167L9.39858 18.3297L9.88442 17.8438C11.7453 15.9839 12.177 13.2376 11.1852 10.9652L13.3128 8.83758C14.8711 9.27483 16.6155 8.88158 17.8438 7.65325L18.3297 7.16742ZM10.9193 4.95183C10.5417 3.98842 10.6407 2.88292 11.2145 1.99558L16.3341 7.11608C15.4467 7.68992 14.3413 7.78892 13.3778 7.41125L12.9589 7.24717L9.504 10.7021L9.74783 11.1531C10.6343 12.7903 10.5059 14.8307 9.36467 16.3515L1.97908 8.96592C3.49892 7.82467 5.54033 7.69633 7.1775 8.58275L7.6285 8.82658L11.0834 5.37167L10.9193 4.95275V4.95183Z" fill="var(--fill-0, #202022)"/>
</svg>
