<svg preserveAspectRatio="none" width="100%" height="100%" overflow="visible" style="display: block;" viewBox="0 0 22 22" fill="none" xmlns="http://www.w3.org/2000/svg">
<path id="Vector" d="M8.463 0H13.04V1.195C13.04 1.749 13.464 2.316 14.145 2.6C14.812 2.878 15.491 2.775 15.89 2.377L16.735 1.532L19.971 4.768L19.125 5.614C18.727 6.012 18.624 6.691 18.902 7.358C19.186 8.039 19.753 8.463 20.306 8.463H21.501V13.04H20.306C19.752 13.04 19.185 13.464 18.901 14.145C18.623 14.812 18.726 15.491 19.124 15.89L19.97 16.736L16.734 19.972L15.888 19.126C15.49 18.728 14.811 18.625 14.144 18.903C13.463 19.187 13.039 19.754 13.039 20.307V21.502H8.462V20.307C8.462 19.754 8.038 19.187 7.357 18.903C6.69 18.625 6.012 18.728 5.613 19.126L4.767 19.972L1.531 16.736L2.377 15.89C2.776 15.491 2.878 14.812 2.6 14.145C2.316 13.464 1.749 13.04 1.195 13.04H0V8.463H1.195C1.748 8.463 2.315 8.039 2.599 7.358C2.877 6.691 2.774 6.013 2.376 5.614L1.53 4.768L4.766 1.532L5.611 2.377C6.01 2.776 6.689 2.878 7.355 2.6C8.036 2.316 8.46 1.749 8.46 1.195V0H8.463ZM9.945 1.5C9.811 2.682 8.912 3.576 7.934 3.984C6.944 4.397 5.7 4.378 4.779 3.641L3.64 4.78C4.378 5.701 4.396 6.944 3.984 7.934C3.577 8.912 2.682 9.811 1.5 9.945V11.556C2.682 11.69 3.576 12.589 3.984 13.567C4.397 14.557 4.378 15.801 3.64 16.722L4.778 17.861C5.699 17.123 6.943 17.104 7.933 17.517C8.911 17.924 9.81 18.819 9.944 20.001H11.555C11.689 18.819 12.588 17.925 13.566 17.517C14.556 17.104 15.8 17.123 16.721 17.861L17.86 16.722C17.122 15.801 17.103 14.557 17.516 13.567C17.924 12.589 18.818 11.69 20 11.556V9.945C18.818 9.811 17.924 8.912 17.516 7.934C17.103 6.944 17.122 5.7 17.86 4.779L16.721 3.64C15.8 4.378 14.556 4.396 13.566 3.983C12.588 3.576 11.689 2.681 11.555 1.499H9.944L9.945 1.5Z" fill="var(--fill-0, black)"/>
</svg>
