<svg preserveAspectRatio="none" width="100%" height="100%" overflow="visible" style="display: block;" viewBox="0 0 8 7" fill="none" xmlns="http://www.w3.org/2000/svg">
<g id="Oval 43" filter="url(#filter0_d_121_117178)">
<path d="M0.571289 4.2666C0.88688 4.2666 1.14258 4.50525 1.14258 4.7998C1.14254 5.09433 0.886857 5.33301 0.571289 5.33301C0.255785 5.33294 3.76708e-05 5.09428 0 4.7998C0 4.5053 0.255762 4.26667 0.571289 4.2666ZM2.85742 4.2666C3.17288 4.26675 3.42871 4.50534 3.42871 4.7998C3.42867 5.09424 3.17286 5.33286 2.85742 5.33301C2.54185 5.33301 2.28617 5.09433 2.28613 4.7998C2.28613 4.50525 2.54183 4.2666 2.85742 4.2666ZM5.14258 4.2666C5.45817 4.2666 5.71387 4.50525 5.71387 4.7998C5.71383 5.09433 5.45815 5.33301 5.14258 5.33301C4.82714 5.33286 4.57133 5.09424 4.57129 4.7998C4.57129 4.50534 4.82712 4.26675 5.14258 4.2666ZM7.42871 4.2666C7.74424 4.26667 8 4.5053 8 4.7998C7.99996 5.09428 7.74421 5.33294 7.42871 5.33301C7.11314 5.33301 6.85746 5.09433 6.85742 4.7998C6.85742 4.50525 7.11312 4.2666 7.42871 4.2666ZM1.71387 3.2002C2.02946 3.2002 2.28613 3.43885 2.28613 3.7334C2.2861 4.02792 2.02944 4.2666 1.71387 4.2666C1.39849 4.26639 1.14262 4.02779 1.14258 3.7334C1.14258 3.43898 1.39847 3.20041 1.71387 3.2002ZM4 3.2002C4.31559 3.2002 4.57129 3.43885 4.57129 3.7334C4.57125 4.02792 4.31557 4.2666 4 4.2666C3.68443 4.2666 3.42875 4.02792 3.42871 3.7334C3.42871 3.43885 3.68441 3.2002 4 3.2002ZM6.28613 3.2002C6.60153 3.20041 6.85742 3.43898 6.85742 3.7334C6.85738 4.02779 6.60151 4.26639 6.28613 4.2666C5.97056 4.2666 5.7139 4.02792 5.71387 3.7334C5.71387 3.43885 5.97054 3.2002 6.28613 3.2002ZM0.571289 2.13379C0.88688 2.13379 1.14258 2.37244 1.14258 2.66699C1.14254 2.96151 0.886857 3.2002 0.571289 3.2002C0.255785 3.20012 3.76018e-05 2.96147 0 2.66699C0 2.37248 0.255762 2.13386 0.571289 2.13379ZM2.85742 2.13379C3.17288 2.13393 3.42871 2.37253 3.42871 2.66699C3.42867 2.96142 3.17286 3.20005 2.85742 3.2002C2.54185 3.2002 2.28617 2.96151 2.28613 2.66699C2.28613 2.37244 2.54183 2.13379 2.85742 2.13379ZM5.14258 2.13379C5.45817 2.13379 5.71387 2.37244 5.71387 2.66699C5.71383 2.96151 5.45815 3.2002 5.14258 3.2002C4.82714 3.20005 4.57133 2.96142 4.57129 2.66699C4.57129 2.37253 4.82712 2.13393 5.14258 2.13379ZM7.42871 2.13379C7.74424 2.13386 8 2.37248 8 2.66699C7.99996 2.96147 7.74421 3.20012 7.42871 3.2002C7.11314 3.2002 6.85746 2.96151 6.85742 2.66699C6.85742 2.37244 7.11312 2.13379 7.42871 2.13379ZM1.71387 1.06641C2.02941 1.06641 2.28606 1.30512 2.28613 1.59961C2.28613 1.89416 2.02946 2.13281 1.71387 2.13281C1.39847 2.1326 1.14258 1.89403 1.14258 1.59961C1.14265 1.30525 1.39852 1.06662 1.71387 1.06641ZM4 1.06641C4.31554 1.06641 4.57121 1.30512 4.57129 1.59961C4.57129 1.89416 4.31559 2.13281 4 2.13281C3.68441 2.13281 3.42871 1.89416 3.42871 1.59961C3.42879 1.30512 3.68446 1.06641 4 1.06641ZM6.28613 1.06641C6.60148 1.06662 6.85735 1.30525 6.85742 1.59961C6.85742 1.89403 6.60153 2.1326 6.28613 2.13281C5.97054 2.13281 5.71387 1.89416 5.71387 1.59961C5.71394 1.30512 5.97059 1.06641 6.28613 1.06641ZM0.571289 0C0.886834 0 1.1425 0.238711 1.14258 0.533203C1.14258 0.827755 0.88688 1.06641 0.571289 1.06641C0.255762 1.06634 0 0.827712 0 0.533203C7.53627e-05 0.238755 0.255808 7.03385e-05 0.571289 0ZM2.85742 0C3.17284 0.000140626 3.42864 0.238798 3.42871 0.533203C3.42871 0.827668 3.17288 1.06627 2.85742 1.06641C2.54183 1.06641 2.28613 0.827755 2.28613 0.533203C2.28621 0.238711 2.54188 0 2.85742 0ZM5.14258 0C5.45812 0 5.71379 0.238711 5.71387 0.533203C5.71387 0.827755 5.45817 1.06641 5.14258 1.06641C4.82711 1.06627 4.57129 0.827668 4.57129 0.533203C4.57136 0.238798 4.82716 0.000140644 5.14258 0ZM7.42871 0C7.74419 7.04415e-05 7.99992 0.238755 8 0.533203C8 0.827712 7.74424 1.06634 7.42871 1.06641C7.11312 1.06641 6.85742 0.827755 6.85742 0.533203C6.8575 0.238711 7.11317 0 7.42871 0Z" fill="url(#paint0_linear_121_117178)"/>
</g>
<defs>
<filter id="filter0_d_121_117178" x="0" y="0" width="8" height="6.33301" filterUnits="userSpaceOnUse" color-interpolation-filters="sRGB">
<feFlood flood-opacity="0" result="BackgroundImageFix"/>
<feColorMatrix in="SourceAlpha" type="matrix" values="0 0 0 0 0 0 0 0 0 0 0 0 0 0 0 0 0 0 127 0" result="hardAlpha"/>
<feOffset dy="1"/>
<feColorMatrix type="matrix" values="0 0 0 0 0 0 0 0 0 0 0 0 0 0 0 0 0 0 0.06 0"/>
<feBlend mode="normal" in2="BackgroundImageFix" result="effect1_dropShadow_121_117178"/>
<feBlend mode="normal" in="SourceGraphic" in2="effect1_dropShadow_121_117178" result="shape"/>
</filter>
<linearGradient id="paint0_linear_121_117178" x1="0" y1="0" x2="0" y2="5.33301" gradientUnits="userSpaceOnUse">
<stop stop-color="white"/>
<stop offset="1" stop-color="#F0F0F0"/>
</linearGradient>
</defs>
</svg>
