<svg preserveAspectRatio="none" width="100%" height="100%" overflow="visible" style="display: block;" viewBox="0 0 24 18" fill="none" xmlns="http://www.w3.org/2000/svg">
<path id="Vector" d="M7.75 1.5C6.005 1.5 4.562 2.951 4.562 4.776C4.562 6.601 6.005 8.052 7.75 8.052C9.495 8.052 10.938 6.601 10.938 4.776C10.938 2.951 9.495 1.5 7.75 1.5ZM3.062 4.776C3.062 2.154 5.145 0 7.749 0C10.353 0 12.436 2.154 12.436 4.776C12.436 7.398 10.353 9.552 7.749 9.552C5.145 9.552 3.062 7.398 3.062 4.776ZM0 16.855C0 13.492 2.671 10.737 6 10.737H9.5C11.306 10.737 12.918 11.548 14.016 12.827C14.554 12.616 15.139 12.5 15.75 12.5H18.75C21.373 12.5 23.5 14.627 23.5 17.25V17.75H22V17.25C22 15.455 20.545 14 18.75 14H15.75C15.444 14 15.149 14.042 14.869 14.121C15.274 14.945 15.501 15.874 15.501 16.856V17.751H14.001V16.856C14.001 14.289 11.971 12.238 9.501 12.238H6.001C3.531 12.238 1.501 14.29 1.501 16.856V17.751H0.000999987V16.856L0 16.855ZM15 7.75C15 6.507 16.007 5.5 17.25 5.5C18.493 5.5 19.5 6.507 19.5 7.75C19.5 8.993 18.493 10 17.25 10C16.007 10 15 8.993 15 7.75ZM17.25 4C15.179 4 13.5 5.679 13.5 7.75C13.5 9.821 15.179 11.5 17.25 11.5C19.321 11.5 21 9.821 21 7.75C21 5.679 19.321 4 17.25 4Z" fill="var(--fill-0, #202022)"/>
</svg>
