<svg preserveAspectRatio="none" width="100%" height="100%" overflow="visible" style="display: block;" viewBox="0 0 22 22" fill="none" xmlns="http://www.w3.org/2000/svg">
<path id="Vector" d="M9.75 0.00100005C4.365 0.00100005 0 4.366 0 9.751C0 15.136 4.365 19.501 9.75 19.501C12.172 19.501 14.388 18.618 16.094 17.155L20.22 21.281L21.281 20.22L17.155 16.094C18.617 14.389 19.501 12.173 19.501 9.75C19.501 4.365 15.136 0 9.751 0L9.75 0.00100005ZM1.5 9.751C1.5 5.195 5.194 1.501 9.75 1.501C14.306 1.501 18 5.195 18 9.751C18 14.307 14.306 18.001 9.75 18.001C5.194 18.001 1.5 14.307 1.5 9.751Z" fill="var(--fill-0, #202022)"/>
</svg>
