<svg preserveAspectRatio="none" width="100%" height="100%" overflow="visible" style="display: block;" viewBox="0 0 30 23" fill="none" xmlns="http://www.w3.org/2000/svg">
<path id="Vector" d="M3.53765 6.134C3.53765 3.70051 2.30453 1.68936 0 0H5.35702C7.23703 1.44803 8.38929 3.66029 8.38929 6.134C8.38929 8.60771 7.23703 10.82 5.35702 12.268C7.09552 12.992 8.08607 14.7618 8.08607 17.2959V22.1226H3.23443V17.2959C3.23443 14.8825 2.08216 13.1931 0 12.268C2.30453 10.5786 3.53765 8.56748 3.53765 6.134ZM14.0495 6.134C14.0495 3.70051 12.8164 1.68936 10.5119 0H15.8689C17.7489 1.44803 18.9012 3.66029 18.9012 6.134C18.9012 8.60771 17.7489 10.82 15.8689 12.268C17.6074 12.992 18.598 14.7618 18.598 17.2959V22.1226H13.7463V17.2959C13.7463 14.8825 12.594 13.1931 10.5119 12.268C12.8164 10.5786 14.0495 8.56748 14.0495 6.134ZM24.5634 6.134C24.5634 3.70051 23.3303 1.68936 21.0258 0H26.3828C28.2628 1.44803 29.4151 3.66029 29.4151 6.134C29.4151 8.60771 28.2628 10.82 26.3828 12.268C28.1213 12.992 29.1119 14.7618 29.1119 17.2959V22.1226H24.2602V17.2959C24.2602 14.8825 23.108 13.1931 21.0258 12.268C23.3303 10.5786 24.5634 8.56748 24.5634 6.134Z" fill="var(--fill-0, white)"/>
</svg>
