<svg preserveAspectRatio="none" width="100%" height="100%" overflow="visible" style="display: block;" viewBox="0 0 6 7" fill="none" xmlns="http://www.w3.org/2000/svg">
<path id="Vector" d="M1.5 2.751C1.5 2.04 2.053 1.501 2.75 1.501C3.423 1.501 4 2.065 4 2.801C4 3.173 3.851 3.474 3.621 3.681C3.588 3.711 3.553 3.743 3.516 3.775C3.243 4.02 2.899 4.328 2.622 4.671C2.302 5.068 1.999 5.596 1.999 6.251H3.499C3.499 6.078 3.576 5.877 3.789 5.613C3.984 5.371 4.232 5.149 4.516 4.893L4.626 4.794C5.168 4.305 5.5 3.601 5.5 2.8C5.5 1.271 4.286 0 2.75 0C1.238 0 0 1.197 0 2.75H1.5V2.751Z" fill="var(--fill-0, white)"/>
</svg>
