<svg preserveAspectRatio="none" width="100%" height="100%" overflow="visible" style="display: block;" viewBox="0 0 19 20" fill="none" xmlns="http://www.w3.org/2000/svg">
<path id="Vector" d="M0 2.75C0 1.231 1.231 0 2.75 0H15.75C17.269 0 18.5 1.231 18.5 2.75V4.75C18.5 5.538 18.169 6.249 17.638 6.75C18.169 7.251 18.5 7.962 18.5 8.75V10.75C18.5 11.538 18.169 12.249 17.638 12.75C18.169 13.251 18.5 13.962 18.5 14.75V16.75C18.5 18.269 17.269 19.5 15.75 19.5H2.75C1.231 19.5 0 18.269 0 16.75V14.75C0 13.962 0.331 13.251 0.863 12.75C0.332 12.249 0 11.538 0 10.75V8.75C0 7.962 0.331 7.251 0.863 6.75C0.332 6.249 0 5.538 0 4.75V2.75ZM2.75 12H15.75C16.44 12 17 11.44 17 10.75V8.75C17 8.06 16.44 7.5 15.75 7.5H2.75C2.06 7.5 1.5 8.06 1.5 8.75V10.75C1.5 11.44 2.06 12 2.75 12ZM15.75 13.5H2.75C2.06 13.5 1.5 14.06 1.5 14.75V16.75C1.5 17.44 2.06 18 2.75 18H15.75C16.44 18 17 17.44 17 16.75V14.75C17 14.06 16.44 13.5 15.75 13.5ZM15.75 6C16.44 6 17 5.44 17 4.75V2.75C17 2.06 16.44 1.5 15.75 1.5H2.75C2.06 1.5 1.5 2.06 1.5 2.75V4.75C1.5 5.44 2.06 6 2.75 6H15.75Z" fill="var(--fill-0, black)"/>
</svg>
