<svg preserveAspectRatio="none" width="100%" height="100%" overflow="visible" style="display: block;" viewBox="0 0 24 12" fill="none" xmlns="http://www.w3.org/2000/svg">
<g id="Shape">
<path d="M3.77881 6.75C4.33109 6.75 4.77881 6.30229 4.77881 5.75C4.77881 5.19771 4.33109 4.75 3.77881 4.75C3.22652 4.75 2.77881 5.19771 2.77881 5.75C2.77881 6.30229 3.22652 6.75 3.77881 6.75Z" fill="var(--fill-0, black)"/>
<path fill-rule="evenodd" clip-rule="evenodd" d="M5.75 0C2.57436 0 0 2.57436 0 5.75C0 8.92564 2.57436 11.5 5.75 11.5C7.77021 11.5 9.54588 10.4582 10.5711 8.88455L12.7973 10.6443L15.7575 8.41902L18.766 10.6806L23.1826 6.43149L19.9581 3.68421L11.1175 3.68421C10.2877 1.52957 8.19828 0 5.75 0ZM1.5 5.75C1.5 3.40279 3.40279 1.5 5.75 1.5C7.70908 1.5 9.36033 2.82619 9.85137 4.6311L10.0018 5.18421L19.4058 5.18421L20.9489 6.49899L18.6464 8.71415L15.7575 6.54245L12.8203 8.75044L10.0378 6.55097L9.64915 7.44408C8.99394 8.94968 7.49379 10 5.75 10C3.40279 10 1.5 8.09721 1.5 5.75Z" fill="var(--fill-0, black)"/>
</g>
</svg>
