<svg preserveAspectRatio="none" width="100%" height="100%" overflow="visible" style="display: block;" viewBox="0 0 18 13" fill="none" xmlns="http://www.w3.org/2000/svg">
<path id="Vector" d="M2.06255 3.57629C2.06255 2.1575 1.3436 0.984945 0 0H3.12329C4.21939 0.844239 4.89119 2.13405 4.89119 3.57629C4.89119 5.01853 4.21939 6.30834 3.12329 7.15258C4.13689 7.5747 4.7144 8.60654 4.7144 10.084V12.8981H1.88576V10.084C1.88576 8.6769 1.21396 7.69195 0 7.15258C1.3436 6.16763 2.06255 4.99508 2.06255 3.57629ZM8.19127 3.57629C8.19127 2.1575 7.47232 0.984945 6.12872 0H9.25201C10.3481 0.844239 11.0199 2.13405 11.0199 3.57629C11.0199 5.01853 10.3481 6.30834 9.25201 7.15258C10.2656 7.5747 10.8431 8.60654 10.8431 10.084V12.8981H8.01448V10.084C8.01448 8.6769 7.34268 7.69195 6.12872 7.15258C7.47232 6.16763 8.19127 4.99508 8.19127 3.57629ZM14.3212 3.57629C14.3212 2.1575 13.6022 0.984945 12.2586 0H15.3819C16.478 0.844239 17.1498 2.13405 17.1498 3.57629C17.1498 5.01853 16.478 6.30834 15.3819 7.15258C16.3955 7.5747 16.973 8.60654 16.973 10.084V12.8981H14.1444V10.084C14.1444 8.6769 13.4726 7.69195 12.2586 7.15258C13.6022 6.16763 14.3212 4.99508 14.3212 3.57629Z" fill="var(--fill-0, white)"/>
</svg>
