<svg preserveAspectRatio="none" width="100%" height="100%" overflow="visible" style="display: block;" viewBox="0 0 16 12" fill="none" xmlns="http://www.w3.org/2000/svg">
<path id="Vector" d="M5.16667 1C4.00333 1 3.04133 1.96733 3.04133 3.184C3.04133 4.40067 4.00333 5.368 5.16667 5.368C6.33 5.368 7.292 4.40067 7.292 3.184C7.292 1.96733 6.33 1 5.16667 1ZM2.04133 3.184C2.04133 1.436 3.43 0 5.166 0C6.902 0 8.29067 1.436 8.29067 3.184C8.29067 4.932 6.902 6.368 5.166 6.368C3.43 6.368 2.04133 4.932 2.04133 3.184ZM0 11.2367C0 8.99467 1.78067 7.158 4 7.158H6.33333C7.53733 7.158 8.612 7.69867 9.344 8.55133C9.70267 8.41067 10.0927 8.33333 10.5 8.33333H12.5C14.2487 8.33333 15.6667 9.75133 15.6667 11.5V11.8333H14.6667V11.5C14.6667 10.3033 13.6967 9.33333 12.5 9.33333H10.5C10.296 9.33333 10.0993 9.36133 9.91267 9.414C10.1827 9.96333 10.334 10.5827 10.334 11.2373V11.834H9.334V11.2373C9.334 9.526 7.98067 8.15867 6.334 8.15867H4.00067C2.354 8.15867 1.00067 9.52667 1.00067 11.2373V11.834H0.000666658V11.2373L0 11.2367ZM10 5.16667C10 4.338 10.6713 3.66667 11.5 3.66667C12.3287 3.66667 13 4.338 13 5.16667C13 5.99533 12.3287 6.66667 11.5 6.66667C10.6713 6.66667 10 5.99533 10 5.16667ZM11.5 2.66667C10.1193 2.66667 9 3.786 9 5.16667C9 6.54733 10.1193 7.66667 11.5 7.66667C12.8807 7.66667 14 6.54733 14 5.16667C14 3.786 12.8807 2.66667 11.5 2.66667Z" fill="var(--fill-0, black)"/>
</svg>
