<svg preserveAspectRatio="none" width="100%" height="100%" overflow="visible" style="display: block;" viewBox="0 0 15 15" fill="none" xmlns="http://www.w3.org/2000/svg">
<path id="Vector" d="M6.5 0.000666698C2.91 0.000666698 0 2.91067 0 6.50067C0 10.0907 2.91 13.0007 6.5 13.0007C8.11467 13.0007 9.592 12.412 10.7293 11.4367L13.48 14.1873L14.1873 13.48L11.4367 10.7293C12.4113 9.59267 13.0007 8.11533 13.0007 6.5C13.0007 2.91 10.0907 0 6.50067 0L6.5 0.000666698ZM1 6.50067C1 3.46333 3.46267 1.00067 6.5 1.00067C9.53733 1.00067 12 3.46333 12 6.50067C12 9.538 9.53733 12.0007 6.5 12.0007C3.46267 12.0007 1 9.538 1 6.50067Z" fill="var(--fill-0, #512F3E)"/>
</svg>
