<svg preserveAspectRatio="none" width="100%" height="100%" overflow="visible" style="display: block;" viewBox="0 0 21 24" fill="none" xmlns="http://www.w3.org/2000/svg">
<g id="Shape">
<path fill-rule="evenodd" clip-rule="evenodd" d="M2.93253 10.7333C2.93253 9.45295 3.97044 8.41504 5.25077 8.41504C6.5311 8.41504 7.56901 9.45295 7.56901 10.7333V14.741H6.06901V12.8657H4.43253V14.741H2.93253V10.7333ZM6.06901 11.3657V10.7333C6.06901 10.2814 5.70267 9.91504 5.25077 9.91504C4.79887 9.91504 4.43253 10.2814 4.43253 10.7333V11.3657H6.06901Z" fill="var(--fill-0, black)"/>
<path fill-rule="evenodd" clip-rule="evenodd" d="M8.69083 8.58936H11.1833C12.3674 8.58936 13.3273 9.54925 13.3273 10.7333C13.3273 11.9174 12.3674 12.8773 11.1833 12.8773H10.1908V14.7411H8.69083V8.58936ZM10.1908 11.3773H11.1833C11.539 11.3773 11.8273 11.089 11.8273 10.7333C11.8273 10.3777 11.539 10.0894 11.1833 10.0894H10.1908V11.3773Z" fill="var(--fill-0, black)"/>
<path d="M13.9788 13.4736H14.9713V10.0947H13.9788V8.59473H17.4638V10.0947H16.4713V13.4736H17.4638V14.9736H13.9788V13.4736Z" fill="var(--fill-0, black)"/>
<path fill-rule="evenodd" clip-rule="evenodd" d="M10.2763 0L20.5526 5.93301V17.799L10.2763 23.7321L0 17.799V5.93301L10.2763 0ZM1.5 6.79904V16.933L10.2763 22L19.0526 16.933V6.79904L10.2763 1.73205L1.5 6.79904Z" fill="var(--fill-0, black)"/>
</g>
</svg>
