<svg preserveAspectRatio="none" width="100%" height="100%" overflow="visible" style="display: block;" viewBox="0 0 113 16" fill="none" xmlns="http://www.w3.org/2000/svg">
<g id="Rippling logo">
<path id="icon" d="M2.5835 4.43636C2.5835 2.67636 1.68297 1.22182 1.77799e-05 0H3.91214C5.28508 1.04727 6.12655 2.64727 6.12655 4.43636C6.12655 6.22545 5.28508 7.82545 3.91214 8.87273C5.18174 9.39636 5.90511 10.6764 5.90511 12.5091V16H2.36206V12.5091C2.36206 10.7636 1.52058 9.54182 1.77799e-05 8.87273C1.68297 7.65091 2.5835 6.19636 2.5835 4.43636ZM10.2601 4.43636C10.2601 2.67636 9.35959 1.22182 7.67664 0H11.5888C12.9617 1.04727 13.8032 2.64727 13.8032 4.43636C13.8032 6.22545 12.9617 7.82545 11.5888 8.87273C12.8584 9.39636 13.5817 10.6764 13.5817 12.5091V16H10.0387V12.5091C10.0387 10.7636 9.1972 9.54182 7.67664 8.87273C9.35959 7.65091 10.2601 6.19636 10.2601 4.43636ZM17.9367 4.43636C17.9367 2.67636 17.0362 1.22182 15.3533 0H19.2654C20.6383 1.04727 21.4798 2.64727 21.4798 4.43636C21.4798 6.22545 20.6383 7.82545 19.2654 8.87273C20.535 9.39636 21.2584 10.6764 21.2584 12.5091V16H17.7153V12.5091C17.7153 10.7636 16.8738 9.54182 15.3533 8.87273C17.0362 7.65091 17.9367 6.19636 17.9367 4.43636Z" fill="var(--fill-0, #202022)"/>
<g id="wordmark">
<path id="Vector" d="M31.7977 13.0923H29.1518V2.90906H35.6503C38.776 2.90906 40.317 4.0727 40.317 5.97815C40.317 7.2727 39.5611 8.24724 38.1509 8.74179C39.6047 8.95997 40.2589 9.73088 40.2589 11.1127V13.0909H37.5839V11.2291C37.5839 10.0654 37.0023 9.59997 35.4758 9.59997H31.7977V13.0909V13.0923ZM35.5049 4.3927H31.7977V8.11633H35.4758C36.8134 8.11633 37.642 7.37452 37.642 6.21088C37.642 5.04724 36.8715 4.3927 35.5049 4.3927" fill="var(--fill-0, #202022)"/>
<path id="Vector_2" d="M44.9111 2.90908H42.2651V13.0924H44.9111V2.90908Z" fill="var(--fill-0, #202022)"/>
<path id="Vector_3" d="M53.0234 9.77454H49.7959V13.0909H47.15V2.90908H53.0815C56.2072 2.90908 57.85 4.21818 57.85 6.31272C57.85 8.40727 56.1781 9.77454 53.0234 9.77454V9.77454ZM52.9652 4.39272H49.7959V8.2909H52.9361C54.3027 8.2909 55.1459 7.59272 55.1459 6.32727C55.1459 5.06181 54.3027 4.39272 52.9652 4.39272" fill="var(--fill-0, #202022)"/>
<path id="Vector_4" d="M65.2935 9.77454H62.0661V13.0909H59.4201V2.90908H65.3517C68.4774 2.90908 70.1202 4.21818 70.1202 6.31272C70.1202 8.40727 68.4483 9.77454 65.2935 9.77454V9.77454ZM65.2354 4.39272H62.0661V8.2909H65.2063C66.5729 8.2909 67.4161 7.59272 67.4161 6.32727C67.4161 5.06181 66.5729 4.39272 65.2354 4.39272" fill="var(--fill-0, #202022)"/>
<path id="Vector_5" d="M74.3362 2.90908V11.5782H80.9365V13.0924H71.6903V2.90908H74.3362Z" fill="var(--fill-0, #202022)"/>
<path id="Vector_6" d="M85.2384 2.90908H82.5924V13.0924H85.2384V2.90908Z" fill="var(--fill-0, #202022)"/>
<path id="Vector_7" d="M89.2218 6.31272V13.0924H87.4772V2.90908H89.4559L96.6668 9.68727V2.90908H98.4114V13.0924H96.4342L89.2218 6.31272Z" fill="var(--fill-0, #202022)"/>
<path id="Vector_8" d="M107.047 4.10182C104.532 4.10182 102.889 5.70182 102.889 8.08727C102.889 10.4727 104.459 11.8982 106.902 11.8982H107.076C107.905 11.8982 108.835 11.7236 109.693 11.4473V8.69818H105.419V7.24364H112.281V12.0291C110.856 12.7709 108.704 13.3527 106.96 13.3527H106.727C102.715 13.3527 100.127 11.2291 100.127 8.14545C100.127 5.06182 102.787 2.64727 106.873 2.64727H107.105C108.806 2.64727 110.754 3.18546 112.193 4.02909L111.438 5.26546C110.144 4.55273 108.603 4.10182 107.221 4.10182H107.047V4.10182Z" fill="var(--fill-0, #202022)"/>
</g>
</g>
</svg>
