<svg preserveAspectRatio="none" width="100%" height="100%" overflow="visible" style="display: block;" viewBox="0 0 15 15" fill="none" xmlns="http://www.w3.org/2000/svg">
<path id="Vector" d="M5.64 0.000666698V0.797333C5.64 1.16667 5.35733 1.54467 4.90333 1.734C4.45867 1.91933 4.006 1.85067 3.74067 1.58533L3.17733 1.022L1.02 3.17933L1.584 3.74333C1.84933 4.00867 1.918 4.46133 1.73267 4.906C1.54333 5.36 1.16533 5.64267 0.796667 5.64267H0V8.694H0.796667C1.166 8.694 1.544 8.97667 1.73333 9.43067C1.91867 9.87533 1.85 10.328 1.58467 10.5933L1.02067 11.1573L3.178 13.3147L3.742 12.7507C4.00733 12.4853 4.46 12.4167 4.90467 12.602C5.35867 12.7913 5.64133 13.1693 5.64133 13.538V14.3347H8.69267V13.538C8.69267 13.1693 8.97533 12.7913 9.42933 12.602C9.874 12.4167 10.326 12.4853 10.592 12.7507L11.156 13.3147L13.3133 11.1573L12.7493 10.5933C12.4833 10.3273 12.4153 9.87467 12.6007 9.43C12.79 8.976 13.168 8.69333 13.5373 8.69333H14.334V5.642H13.5373C13.1687 5.642 12.7907 5.35933 12.6013 4.90533C12.416 4.46067 12.4847 4.00867 12.75 3.74267L13.314 3.17867L11.1567 1.02133L10.5933 1.58467C10.3273 1.85067 9.87467 1.91867 9.43067 1.73333C8.97667 1.544 8.694 1.166 8.694 0.796667V0H5.64267L5.64 0.000666698ZM5.28733 2.65667C5.93933 2.38533 6.53867 1.78867 6.628 1.00067H7.702C7.79133 1.78867 8.39067 2.38467 9.04267 2.65667C9.70267 2.932 10.532 2.91933 11.146 2.428L11.9053 3.18733C11.4133 3.80133 11.4013 4.63 11.676 5.29C11.9473 5.942 12.544 6.54133 13.332 6.63067V7.70467C12.544 7.794 11.948 8.39333 11.676 9.04533C11.4007 9.70533 11.4133 10.5347 11.9053 11.1487L11.146 11.908C10.532 11.416 9.70267 11.4033 9.04267 11.6787C8.39067 11.95 7.79133 12.5467 7.702 13.3347H6.628C6.53867 12.5467 5.93933 11.9507 5.28733 11.6787C4.62733 11.4033 3.798 11.416 3.184 11.908L2.42533 11.1487C2.91733 10.5347 2.93 9.70533 2.65467 9.04533C2.38333 8.39333 1.78667 7.794 0.998667 7.70467V6.63067C1.78667 6.54133 2.38267 5.942 2.65467 5.29C2.93 4.63 2.91733 3.80067 2.42533 3.18733L3.18467 2.428C3.79867 2.92 4.628 2.932 5.288 2.65667H5.28733Z" fill="var(--fill-0, black)"/>
</svg>
