<svg preserveAspectRatio="none" width="100%" height="100%" overflow="visible" style="display: block;" viewBox="0 0 15 22" fill="none" xmlns="http://www.w3.org/2000/svg">
<path id="Vector" d="M2.05 1.66L0 0V21.443L2.05 19.783L3.783 21.186L5.516 19.783L7.249 21.186L8.982 19.783L10.715 21.186L12.448 19.783L14.498 21.443V0L12.448 1.66L10.715 0.257L8.982 1.66L7.249 0.257L5.516 1.66L3.783 0.257L2.05 1.66ZM2.05 3.59L3.783 2.187L5.516 3.59L7.249 2.187L8.982 3.59L10.715 2.187L12.448 3.59L12.998 3.145V18.299L12.448 17.854L10.715 19.257L8.982 17.854L7.249 19.257L5.516 17.854L3.783 19.257L2.05 17.854L1.5 18.299V3.145L2.05 3.59Z" fill="var(--fill-0, #252528)"/>
</svg>
