<svg preserveAspectRatio="none" width="100%" height="100%" overflow="visible" style="display: block;" viewBox="0 0 18 18" fill="none" xmlns="http://www.w3.org/2000/svg">
<path id="Vector" d="M8.125 0.000833372C3.6375 0.000833372 0 3.63833 0 8.12583C0 12.6133 3.6375 16.2508 8.125 16.2508C10.1433 16.2508 11.99 15.515 13.4117 14.2958L16.85 17.7342L17.7342 16.85L14.2958 13.4117C15.5142 11.9908 16.2508 10.1442 16.2508 8.125C16.2508 3.6375 12.6133 0 8.12583 0L8.125 0.000833372ZM1.25 8.12583C1.25 4.32917 4.32833 1.25083 8.125 1.25083C11.9217 1.25083 15 4.32917 15 8.12583C15 11.9225 11.9217 15.0008 8.125 15.0008C4.32833 15.0008 1.25 11.9225 1.25 8.12583Z" fill="var(--fill-0, white)"/>
</svg>
