<svg preserveAspectRatio="none" width="100%" height="100%" overflow="visible" style="display: block;" viewBox="0 0 20 20" fill="none" xmlns="http://www.w3.org/2000/svg">
<path id="Vector" d="M19.996 7.819L12.177 0L11.647 0.53C10.308 1.869 9.878 3.772 10.355 5.473L8.034 7.794C5.555 6.711 2.56 7.183 0.53 9.213L0 9.743L4.596 14.339L0.884 18.051L1.945 19.112L5.657 15.4L10.253 19.996L10.783 19.466C12.813 17.437 13.284 14.441 12.202 11.962L14.523 9.641C16.223 10.118 18.126 9.689 19.466 8.349L19.996 7.819ZM11.912 5.402C11.5 4.351 11.608 3.145 12.234 2.177L17.819 7.763C16.851 8.389 15.645 8.497 14.594 8.085L14.137 7.906L10.368 11.675L10.634 12.167C11.601 13.953 11.461 16.179 10.216 17.838L2.159 9.781C3.817 8.536 6.044 8.396 7.83 9.363L8.322 9.629L12.091 5.86L11.912 5.403V5.402Z" fill="var(--fill-0, black)"/>
</svg>
