<svg preserveAspectRatio="none" width="100%" height="100%" overflow="visible" style="display: block;" viewBox="0 0 22 17" fill="none" xmlns="http://www.w3.org/2000/svg">
<path id="Vector" d="M2.57819 4.47036C2.57819 2.69687 1.6795 1.23118 0 0H3.90411C5.27423 1.0553 6.11399 2.66756 6.11399 4.47036C6.11399 6.27316 5.27423 7.88542 3.90411 8.94072C5.17111 9.46837 5.893 10.7582 5.893 12.605V16.1226H2.3572V12.605C2.3572 10.8461 1.51745 9.61494 0 8.94072C1.6795 7.70954 2.57819 6.24385 2.57819 4.47036ZM10.2391 4.47036C10.2391 2.69687 9.3404 1.23118 7.6609 0H11.565C12.9351 1.0553 13.7749 2.66756 13.7749 4.47036C13.7749 6.27316 12.9351 7.88542 11.565 8.94072C12.832 9.46837 13.5539 10.7582 13.5539 12.605V16.1226H10.0181V12.605C10.0181 10.8461 9.17835 9.61494 7.6609 8.94072C9.3404 7.70954 10.2391 6.24385 10.2391 4.47036ZM17.9015 4.47036C17.9015 2.69687 17.0028 1.23118 15.3233 0H19.2274C20.5975 1.0553 21.4373 2.66756 21.4373 4.47036C21.4373 6.27316 20.5975 7.88542 19.2274 8.94072C20.4944 9.46837 21.2163 10.7582 21.2163 12.605V16.1226H17.6805V12.605C17.6805 10.8461 16.8407 9.61494 15.3233 8.94072C17.0028 7.70954 17.9015 6.24385 17.9015 4.47036Z" fill="var(--fill-0, white)"/>
</svg>
