<svg preserveAspectRatio="none" width="100%" height="100%" overflow="visible" style="display: block;" viewBox="0 0 21 21" fill="none" xmlns="http://www.w3.org/2000/svg">
<path id="Vector" d="M10.25 0C4.589 0 0 4.589 0 10.25C0 15.911 4.589 20.5 10.25 20.5C15.911 20.5 20.5 15.911 20.5 10.25C20.5 4.589 15.911 0 10.25 0ZM1.5 10.25C1.5 8.104 2.273 6.138 3.555 4.616L6.403 7.464C5.835 8.247 5.5 9.21 5.5 10.251C5.5 11.292 5.835 12.255 6.403 13.038L3.555 15.886C2.273 14.364 1.5 12.398 1.5 10.252V10.25ZM4.616 16.945L7.464 14.097C8.247 14.665 9.21 15 10.251 15C11.292 15 12.255 14.665 13.038 14.097L15.886 16.945C14.364 18.227 12.398 19 10.252 19C8.106 19 6.14 18.227 4.618 16.945H4.616ZM16.945 15.884L14.097 13.036C14.665 12.253 15 11.29 15 10.249C15 9.208 14.665 8.245 14.097 7.462L16.945 4.614C18.227 6.136 19 8.102 19 10.248C19 12.394 18.227 14.36 16.945 15.882V15.884ZM13.037 6.403C12.254 5.835 11.291 5.5 10.25 5.5C9.209 5.5 8.246 5.835 7.463 6.403L4.615 3.555C6.137 2.273 8.103 1.5 10.249 1.5C12.395 1.5 14.361 2.273 15.883 3.555L13.035 6.403H13.037ZM7 10.25C7 8.455 8.455 7 10.25 7C12.045 7 13.5 8.455 13.5 10.25C13.5 12.045 12.045 13.5 10.25 13.5C8.455 13.5 7 12.045 7 10.25Z" fill="var(--fill-0, black)"/>
</svg>
