<svg preserveAspectRatio="none" width="100%" height="100%" overflow="visible" style="display: block;" viewBox="0 0 14 11" fill="none" xmlns="http://www.w3.org/2000/svg">
<path id="Vector" d="M1.66077 2.87964C1.66077 1.73723 1.08187 0.793081 0 0H2.51488C3.39747 0.679784 3.9384 1.71834 3.9384 2.87964C3.9384 4.04094 3.39747 5.0795 2.51488 5.75928C3.33103 6.09917 3.79605 6.93002 3.79605 8.11964V10.3856H1.51842V8.11964C1.51842 6.98667 0.977483 6.19359 0 5.75928C1.08187 4.9662 1.66077 4.02205 1.66077 2.87964ZM6.59564 2.87964C6.59564 1.73723 6.01674 0.793081 4.93487 0H7.44975C8.33233 0.679784 8.87327 1.71834 8.87327 2.87964C8.87327 4.04094 8.33233 5.0795 7.44975 5.75928C8.2659 6.09917 8.73092 6.93002 8.73092 8.11964V10.3856H6.45329V8.11964C6.45329 6.98667 5.91235 6.19359 4.93487 5.75928C6.01674 4.9662 6.59564 4.02205 6.59564 2.87964ZM11.5315 2.87964C11.5315 1.73723 10.9526 0.793081 9.87068 0H12.3856C13.2681 0.679784 13.8091 1.71834 13.8091 2.87964C13.8091 4.04094 13.2681 5.0795 12.3856 5.75928C13.2017 6.09917 13.6667 6.93002 13.6667 8.11964V10.3856H11.3891V8.11964C11.3891 6.98667 10.8482 6.19359 9.87068 5.75928C10.9526 4.9662 11.5315 4.02205 11.5315 2.87964Z" fill="var(--fill-0, white)"/>
</svg>
