<svg preserveAspectRatio="none" width="100%" height="100%" overflow="visible" style="display: block;" viewBox="0 0 22 21" fill="none" xmlns="http://www.w3.org/2000/svg">
<path id="Vector" d="M22 18H13.906C13.573 19.294 12.398 20.25 11 20.25C9.602 20.25 8.428 19.294 8.095 18H0V16.5C2.347 16.5 4.25 14.597 4.25 12.25V6.75C4.25 3.022 7.272 0 11 0C14.728 0 17.75 3.022 17.75 6.75V12.25C17.75 14.597 19.653 16.5 22 16.5V18ZM11 1.5C8.101 1.5 5.75 3.851 5.75 6.75V12.25C5.75 13.934 5.026 15.448 3.873 16.5H18.127C16.974 15.448 16.25 13.934 16.25 12.25V6.75C16.25 3.851 13.899 1.5 11 1.5Z" fill="var(--fill-0, #202022)"/>
</svg>
