<svg preserveAspectRatio="none" width="100%" height="100%" overflow="visible" style="display: block;" viewBox="0 0 10 10" fill="none" xmlns="http://www.w3.org/2000/svg">
<path id="Vector" d="M0 4.25C0 3.422 0.672 2.75 1.5 2.75H2.5V1.75C2.5 0.784 3.283 0 4.25 0H5.75C6.716 0 7.5 0.783 7.5 1.75V2.75H8.5C9.328 2.75 10 3.422 10 4.25V8C10 8.828 9.328 9.5 8.5 9.5H1.5C0.672 9.5 0 8.828 0 8V4.25ZM6 2.75V1.75C6 1.612 5.888 1.5 5.75 1.5H4.25C4.112 1.5 4 1.612 4 1.75V2.75H6Z" fill="var(--fill-0, black)"/>
</svg>
