<svg preserveAspectRatio="none" width="100%" height="100%" overflow="visible" style="display: block;" viewBox="0 0 7 6" fill="none" xmlns="http://www.w3.org/2000/svg">
<g id="Oval 43" filter="url(#filter0_d_121_115454)">
<path d="M0.476562 3.7334C0.739384 3.7336 0.952148 3.94258 0.952148 4.2002C0.951915 4.45761 0.73924 4.66582 0.476562 4.66602C0.213714 4.66602 0.000233086 4.45773 0 4.2002C0 3.94246 0.21357 3.7334 0.476562 3.7334ZM2.38086 3.7334C2.64385 3.7334 2.85742 3.94246 2.85742 4.2002C2.85719 4.45773 2.64371 4.66602 2.38086 4.66602C2.11805 4.66597 1.90453 4.45771 1.9043 4.2002C1.9043 3.94249 2.11791 3.73344 2.38086 3.7334ZM4.28613 3.7334C4.54894 3.73362 4.76172 3.9426 4.76172 4.2002C4.76149 4.4576 4.54879 4.6658 4.28613 4.66602C4.02328 4.66602 3.8098 4.45773 3.80957 4.2002C3.80957 3.94246 4.02314 3.7334 4.28613 3.7334ZM6.19043 3.7334C6.45342 3.7334 6.66699 3.94246 6.66699 4.2002C6.66676 4.45773 6.45328 4.66602 6.19043 4.66602C5.9276 4.66599 5.7141 4.45772 5.71387 4.2002C5.71387 3.94248 5.92746 3.73342 6.19043 3.7334ZM1.42871 2.7998C1.69162 2.79988 1.90426 3.00894 1.9043 3.2666C1.9043 3.52429 1.69164 3.73332 1.42871 3.7334C1.16572 3.7334 0.952148 3.52433 0.952148 3.2666C0.952184 3.0089 1.16574 2.7998 1.42871 2.7998ZM3.33301 2.7998C3.59598 2.7998 3.80953 3.0089 3.80957 3.2666C3.80957 3.52433 3.596 3.7334 3.33301 3.7334C3.07016 3.73323 2.85742 3.52423 2.85742 3.2666C2.85746 3.009 3.07019 2.79998 3.33301 2.7998ZM5.23828 2.7998C5.50117 2.7999 5.71383 3.00896 5.71387 3.2666C5.71387 3.52427 5.50119 3.7333 5.23828 3.7334C4.97529 3.7334 4.76172 3.52433 4.76172 3.2666C4.76175 3.0089 4.97531 2.7998 5.23828 2.7998ZM0.476562 1.86719C0.739384 1.86738 0.952148 2.07637 0.952148 2.33398C0.951915 2.5914 0.73924 2.79961 0.476562 2.7998C0.213714 2.7998 0.000233218 2.59152 0 2.33398C0 2.07625 0.21357 1.86719 0.476562 1.86719ZM2.38086 1.86719C2.64385 1.86719 2.85742 2.07625 2.85742 2.33398C2.85719 2.59152 2.64371 2.7998 2.38086 2.7998C2.11805 2.79976 1.90453 2.59149 1.9043 2.33398C1.9043 2.07628 2.11791 1.86723 2.38086 1.86719ZM4.28613 1.86719C4.54894 1.86741 4.76172 2.07639 4.76172 2.33398C4.76149 2.59139 4.54879 2.79959 4.28613 2.7998C4.02328 2.7998 3.8098 2.59152 3.80957 2.33398C3.80957 2.07625 4.02314 1.86719 4.28613 1.86719ZM6.19043 1.86719C6.45342 1.86719 6.66699 2.07625 6.66699 2.33398C6.66676 2.59152 6.45328 2.7998 6.19043 2.7998C5.9276 2.79978 5.7141 2.59151 5.71387 2.33398C5.71387 2.07627 5.92746 1.86721 6.19043 1.86719ZM1.42871 0.933594C1.69152 0.933664 1.9041 1.14189 1.9043 1.39941C1.9043 1.6571 1.69164 1.86614 1.42871 1.86621C1.16572 1.86621 0.952148 1.65715 0.952148 1.39941C0.952346 1.14185 1.16584 0.933594 1.42871 0.933594ZM3.33301 0.933594C3.59588 0.933594 3.80937 1.14185 3.80957 1.39941C3.80957 1.65715 3.596 1.86621 3.33301 1.86621C3.07016 1.86604 2.85742 1.65704 2.85742 1.39941C2.85762 1.14195 3.07029 0.933766 3.33301 0.933594ZM5.23828 0.933594C5.50106 0.933696 5.71367 1.14191 5.71387 1.39941C5.71387 1.65708 5.50119 1.86611 5.23828 1.86621C4.97529 1.86621 4.76172 1.65715 4.76172 1.39941C4.76192 1.14185 4.97541 0.933594 5.23828 0.933594ZM0.476562 0C0.739384 0.000196932 0.952148 0.209186 0.952148 0.466797C0.952077 0.724348 0.73934 0.933397 0.476562 0.933594C0.213614 0.933594 7.17663e-05 0.72447 0 0.466797C0 0.209064 0.21357 0 0.476562 0ZM2.38086 0C2.64385 0 2.85742 0.209064 2.85742 0.466797C2.85735 0.72447 2.64381 0.933594 2.38086 0.933594C2.11795 0.933545 1.90437 0.72444 1.9043 0.466797C1.9043 0.209094 2.11791 4.92474e-05 2.38086 0ZM4.28613 0C4.54893 0.000221463 4.76172 0.209201 4.76172 0.466797C4.76165 0.724333 4.54889 0.933372 4.28613 0.933594C4.02318 0.933594 3.80964 0.72447 3.80957 0.466797C3.80957 0.209064 4.02314 0 4.28613 0ZM6.19043 0C6.45342 0 6.66699 0.209064 6.66699 0.466797C6.66692 0.72447 6.45338 0.933594 6.19043 0.933594C5.9275 0.933569 5.71394 0.724455 5.71387 0.466797C5.71387 0.209079 5.92746 2.46292e-05 6.19043 0Z" fill="url(#paint0_linear_121_115454)"/>
</g>
<defs>
<filter id="filter0_d_121_115454" x="0" y="0" width="6.66699" height="5.66602" filterUnits="userSpaceOnUse" color-interpolation-filters="sRGB">
<feFlood flood-opacity="0" result="BackgroundImageFix"/>
<feColorMatrix in="SourceAlpha" type="matrix" values="0 0 0 0 0 0 0 0 0 0 0 0 0 0 0 0 0 0 127 0" result="hardAlpha"/>
<feOffset dy="1"/>
<feColorMatrix type="matrix" values="0 0 0 0 0 0 0 0 0 0 0 0 0 0 0 0 0 0 0.06 0"/>
<feBlend mode="normal" in2="BackgroundImageFix" result="effect1_dropShadow_121_115454"/>
<feBlend mode="normal" in="SourceGraphic" in2="effect1_dropShadow_121_115454" result="shape"/>
</filter>
<linearGradient id="paint0_linear_121_115454" x1="0" y1="0" x2="0" y2="4.66602" gradientUnits="userSpaceOnUse">
<stop stop-color="white"/>
<stop offset="1" stop-color="#F0F0F0"/>
</linearGradient>
</defs>
</svg>
