<svg preserveAspectRatio="none" width="100%" height="100%" overflow="visible" style="display: block;" viewBox="0 0 32 24" fill="none" xmlns="http://www.w3.org/2000/svg">
<path id="Vector" d="M3.83743 6.65379C3.83743 4.01409 2.49981 1.83252 0 0H5.81097C7.85029 1.57073 9.1002 3.97046 9.1002 6.65379C9.1002 9.33712 7.85029 11.7368 5.81097 13.3076C7.69679 14.0929 8.77128 16.0127 8.77128 18.7615V23.9973H3.50851V18.7615C3.50851 16.1436 2.2586 14.3111 0 13.3076C2.49981 11.4751 3.83743 9.29349 3.83743 6.65379ZM15.2401 6.65379C15.2401 4.01409 13.9025 1.83252 11.4027 0H17.2136C19.253 1.57073 20.5029 3.97046 20.5029 6.65379C20.5029 9.33712 19.253 11.7368 17.2136 13.3076C19.0995 14.0929 20.1739 16.0127 20.1739 18.7615V23.9973H14.9112V18.7615C14.9112 16.1436 13.6613 14.3111 11.4027 13.3076C13.9025 11.4751 15.2401 9.29349 15.2401 6.65379ZM26.6449 6.65379C26.6449 4.01409 25.3073 1.83252 22.8075 0H28.6185C30.6578 1.57073 31.9077 3.97046 31.9077 6.65379C31.9077 9.33712 30.6578 11.7368 28.6185 13.3076C30.5043 14.0929 31.5788 16.0127 31.5788 18.7615V23.9973H26.316V18.7615C26.316 16.1436 25.0661 14.3111 22.8075 13.3076C25.3073 11.4751 26.6449 9.29349 26.6449 6.65379Z" fill="var(--fill-0, white)"/>
</svg>
