<svg width="41" height="40" viewBox="0 0 41 40" fill="none" xmlns="http://www.w3.org/2000/svg">
<path d="M11.146 16.4364C11.146 14.6764 10.2237 13.2218 8.5 12H12.5069C13.9131 13.0473 14.7749 14.6473 14.7749 16.4364C14.7749 18.2255 13.9131 19.8255 12.5069 20.8727C13.8072 21.3964 14.5481 22.6764 14.5481 24.5091V28H10.9192V24.5091C10.9192 22.7636 10.0574 21.5418 8.5 20.8727C10.2237 19.6509 11.146 18.1964 11.146 16.4364ZM19.0086 16.4364C19.0086 14.6764 18.0863 13.2218 16.3625 12H20.3694C21.7756 13.0473 22.6375 14.6473 22.6375 16.4364C22.6375 18.2255 21.7756 19.8255 20.3694 20.8727C21.6698 21.3964 22.4107 22.6764 22.4107 24.5091V28H18.7818V24.5091C18.7818 22.7636 17.9199 21.5418 16.3625 20.8727C18.0863 19.6509 19.0086 18.1964 19.0086 16.4364ZM26.8711 16.4364C26.8711 14.6764 25.9488 13.2218 24.2251 12H28.232C29.6381 13.0473 30.5 14.6473 30.5 16.4364C30.5 18.2255 29.6381 19.8255 28.232 20.8727C29.5323 21.3964 30.2732 22.6764 30.2732 24.5091V28H26.6443V24.5091C26.6443 22.7636 25.7825 21.5418 24.2251 20.8727C25.9488 19.6509 26.8711 18.1964 26.8711 16.4364Z" fill="black"/>
</svg>
